<?xml version="1.0" encoding="UTF-8"?>
<svg xmlns="http://www.w3.org/2000/svg" width="100" height="100" viewBox="0 0 100 100">
  <defs>
    <filter id="leipzig-wN-shadow" x="-20%" y="-20%" width="140%" height="140%">
      <feDropShadow dx="0" dy="2" stdDeviation="2" flood-color="#00000033"/>
    </filter>
  </defs>
  <rect x="12" y="12" width="76" height="76" rx="14" fill="#ffffff00"/>
  <g fill="#fff8fd" stroke="#5a2f69" stroke-width="2.5" filter="url(#leipzig-wN-shadow)">
    
    <path d="M34 66c0-17 4-31 16-42 5-5 13-8 18-6-2 4-3 8-2 12 4 2 7 6 8 11-5 0-9 1-13 4 4 5 6 12 6 21H34z" />
    <circle cx="61" cy="33" r="2.5" />
    <path d="M26 69h48l-4 11H30z" />
  
  </g>
  <g fill="none" stroke="#c56ee0" stroke-width="2">
    <path d="M30 82h40" stroke-linecap="round" />
  </g>
</svg>
